<svg id="Group_5" data-name="Group 5" xmlns="http://www.w3.org/2000/svg" width="52.682" height="52.681" viewBox="0 0 52.682 52.681">
  <path id="Path_346" data-name="Path 346" d="M206.622,286.91a26.293,26.293,0,1,1-9.614-9.614,26.411,26.411,0,0,1,9.614,9.554v.06Zm-39.3,27.727a29.764,29.764,0,0,1,8.017-9.463,26.842,26.842,0,0,1,10.729-5.666q-.845-1.928-1.567-3.315a63.947,63.947,0,0,1-19.59,2.893h-3.074v.482a2.759,2.759,0,0,0-.06.542A21.4,21.4,0,0,0,167.321,314.637ZM162.5,294.686q1.144.122,3.436.121a57.246,57.246,0,0,0,16.7-2.411,52.765,52.765,0,0,0-8.8-11.874,21.517,21.517,0,0,0-7.173,5.907A22.568,22.568,0,0,0,162.5,294.686ZM191.553,320.6a80.288,80.288,0,0,0-4.1-17.42,22.247,22.247,0,0,0-9.825,5.3,29.579,29.579,0,0,0-7.293,8.981,21.437,21.437,0,0,0,21.217,3.134Zm-13.14-41.711a54.293,54.293,0,0,1,8.559,11.935q7.233-3.013,10.85-7.655a21.477,21.477,0,0,0-14.044-5.063A18.871,18.871,0,0,0,178.412,278.893Zm27.245,19.771a21.207,21.207,0,0,0-5.184-12.778q-3.377,5.124-11.573,8.68.782,1.688,1.808,4.28,3.856-.362,8.5-.362Q202.4,298.483,205.657,298.664Zm-.06,3.858q-3.858-.24-6.992-.241-2.832,0-6.57.241a78.564,78.564,0,0,1,3.617,16.033,21.805,21.805,0,0,0,6.811-6.871A20.8,20.8,0,0,0,205.6,302.522Z" transform="translate(-157.436 -273.77)" fill="#3e3e3f"/>
</svg>
