<svg id="Rounded" xmlns="http://www.w3.org/2000/svg" width="53.177" height="53.176" viewBox="0 0 53.177 53.176">
  <path id="Rounded_Rectangle_2_copy" data-name="Rounded Rectangle 2 copy" d="M37.824,53.176H15.353a15.464,15.464,0,0,1-3.094-.312,15.272,15.272,0,0,1-5.49-2.31A15.4,15.4,0,0,1,1.207,43.8a15.28,15.28,0,0,1-.895-2.882A15.463,15.463,0,0,1,0,37.824V15.353a15.463,15.463,0,0,1,.312-3.094,15.269,15.269,0,0,1,2.31-5.49A15.4,15.4,0,0,1,9.377,1.207,15.276,15.276,0,0,1,12.259.312,15.463,15.463,0,0,1,15.353,0H37.824a15.463,15.463,0,0,1,3.094.312,15.269,15.269,0,0,1,5.49,2.31A15.4,15.4,0,0,1,51.97,9.377a15.277,15.277,0,0,1,.895,2.882,15.463,15.463,0,0,1,.312,3.094V37.824a15.463,15.463,0,0,1-.312,3.094,15.272,15.272,0,0,1-2.31,5.49A15.4,15.4,0,0,1,43.8,51.97a15.281,15.281,0,0,1-2.882.895A15.464,15.464,0,0,1,37.824,53.176ZM27.17,4.606c-6.076,0-12.121.268-12.375.279a9.781,9.781,0,0,0-9.77,9.77c-.006.26-.14,6.447-.14,12.422,0,5.56.134,10.939.14,11.166a9.781,9.781,0,0,0,9.77,9.77c.252.011,6.233.279,12.1.279,5.666,0,11.256-.268,11.491-.279a9.781,9.781,0,0,0,9.77-9.77c.011-.226.279-5.608.279-11.166,0-5.971-.268-12.161-.279-12.422a9.781,9.781,0,0,0-9.77-9.77C38.148,4.874,32.6,4.606,27.17,4.606Zm-.581,35.73A13.684,13.684,0,0,1,18.9,37.988a13.788,13.788,0,0,1-4.981-6.049A13.73,13.73,0,0,1,15.188,18.9a13.788,13.788,0,0,1,6.049-4.981,13.73,13.73,0,0,1,13.038,1.268,13.788,13.788,0,0,1,4.981,6.049,13.73,13.73,0,0,1-1.268,13.038,13.788,13.788,0,0,1-6.049,4.981A13.661,13.661,0,0,1,26.588,40.336Zm0-22.75a8.863,8.863,0,1,0,8.863,8.863A8.873,8.873,0,0,0,26.588,17.586Zm14.166-2.094a3.21,3.21,0,1,1,2.27-.94A3.189,3.189,0,0,1,40.755,15.492Z" transform="translate(0 0)" fill="#3e3e3f"/>
</svg>
