<svg id="Group_7" data-name="Group 7" xmlns="http://www.w3.org/2000/svg" width="84.621" height="52.656" viewBox="0 0 84.621 52.656">
  <path id="Path_446" data-name="Path 446" d="M199.16,164.04a14.317,14.317,0,0,1,2.033,7.841,15.244,15.244,0,0,1-2.323,8.322,14.655,14.655,0,0,1-3.775,4.165,14.064,14.064,0,0,1-5.953,2.614,38.231,38.231,0,0,1-7.405.675H158.02V135h25.361q9.678.2,13.649,5.614a13.276,13.276,0,0,1,2.42,8.083,11.64,11.64,0,0,1-2.42,7.7,12.517,12.517,0,0,1-3.969,3A11.539,11.539,0,0,1,199.16,164.04Zm-29.04-8.322h11.132a10.658,10.658,0,0,0,5.614-1.307q2.127-1.307,2.13-4.6,0-3.677-2.807-4.84a19.466,19.466,0,0,0-6.292-.871H170.12v11.616Zm19.941,15.292a5.635,5.635,0,0,0-3.388-5.612,12.539,12.539,0,0,0-5.227-.871H170.12v14.036h11.132a11.722,11.722,0,0,0,5.324-.966Q190.061,175.847,190.061,171.009Zm52.272-8.518a47.364,47.364,0,0,1,.29,7.454H215.228q.192,5.71,3.872,7.935a9.9,9.9,0,0,0,5.518,1.454,8.285,8.285,0,0,0,5.421-1.742,7.248,7.248,0,0,0,2.033-2.614h10.067a12.292,12.292,0,0,1-3.678,6.873q-5.035,5.518-14.23,5.515a20.447,20.447,0,0,1-13.213-4.646q-5.761-4.643-5.76-15.1,0-9.877,5.179-15.1t13.5-5.227a21.589,21.589,0,0,1,8.857,1.742,15.354,15.354,0,0,1,6.534,5.614A18.635,18.635,0,0,1,242.332,162.491Zm-7.841-20.037H213.2V137.13h21.3Zm-2.033,21.005a8.313,8.313,0,0,0-2.662-6,8.676,8.676,0,0,0-5.856-2.033,7.723,7.723,0,0,0-5.856,2.176,10.629,10.629,0,0,0-2.662,5.856Z" transform="translate(-158.02 -135)" fill="#3e3e3f"/>
</svg>
