<svg id="Group_6" data-name="Group 6" xmlns="http://www.w3.org/2000/svg" width="52.531" height="52.833" viewBox="0 0 52.531 52.833">
  <path id="Path_375" data-name="Path 375" d="M134.955,633.073a3.837,3.837,0,0,1,2.777,1.115,3.622,3.622,0,0,1,1.147,2.687v45.285a3.518,3.518,0,0,1-1.147,2.657,3.821,3.821,0,0,1-2.717,1.088h-44.8a3.809,3.809,0,0,1-2.717-1.088,3.514,3.514,0,0,1-1.147-2.657V636.876a3.617,3.617,0,0,1,1.147-2.687,3.835,3.835,0,0,1,2.777-1.115h44.682Zm-33.39,15.969a4.228,4.228,0,0,0,0-5.917,4.388,4.388,0,0,0-3.2-1.176,4.5,4.5,0,0,0-3.23,1.176,3.914,3.914,0,0,0-1.238,2.959,3.956,3.956,0,0,0,1.208,2.959,4.3,4.3,0,0,0,3.14,1.177h.06A4.459,4.459,0,0,0,101.565,649.042Zm.725,4.44H94.38v23.85h7.91Zm28.56,10.144q0-5.251-2.6-8.089a9.378,9.378,0,0,0-11.291-1.27,9.353,9.353,0,0,0-2.355,2.6v-3.381H106.7q.059,1.388,0,12.74v11.108h7.91V663.988a5.93,5.93,0,0,1,.242-1.932,4.81,4.81,0,0,1,1.449-1.991,4.011,4.011,0,0,1,2.657-.907,3.48,3.48,0,0,1,3.079,1.509,7.041,7.041,0,0,1,.906,3.866v12.8h7.91Z" transform="translate(-86.349 -633.073)" fill="#3e3e3f"/>
</svg>
